<?xml version="1.0" standalone="no"?><!DOCTYPE svg PUBLIC "-//W3C//DTD SVG 1.1//EN"
        "http://www.w3.org/Graphics/SVG/1.1/DTD/svg11.dtd">
<svg t="1747625386824" class="icon" viewBox="0 0 1024 1024" version="1.1" xmlns="http://www.w3.org/2000/svg" p-id="6373"
     width="256" height="256">
    <path d="M510.760372 935.86496A686.987036 686.987036 0 0 1 383.991859 947.17992c-187.541624 0-307.193487-68.248153-307.193487-115.197558v-95.28118c68.913739 45.515835 178.78661 73.931233 307.193487 73.931233 27.391419 0 53.861258-1.382371 79.307119-3.839919A312.72297 312.72297 0 0 1 460.790231 767.983719a317.43327 317.43327 0 0 1 2.457548-38.450385 715.351235 715.351235 0 0 1-79.25592 4.300709c-187.541624 0-307.193487-68.196954-307.193487-115.197558v-95.229981c68.913739 45.515835 178.78661 73.931233 307.193487 73.931232a780.68105 780.68105 0 0 0 136.752301-11.622153A306.681498 306.681498 0 0 1 767.983719 460.790231V191.99593C767.983719 82.53265 602.918418 0 383.991859 0S0 82.53265 0 191.99593v639.986432C0 941.445641 165.065301 1023.978292 383.991859 1023.978292a734.90922 734.90922 0 0 0 184.879281-22.16913 309.036648 309.036648 0 0 1-58.110768-65.944202zM383.991859 76.798372c187.541624 0 307.193487 68.248153 307.193488 115.197558S571.533483 307.193487 383.991859 307.193487 76.798372 238.945334 76.798372 191.99593 196.450235 76.798372 383.991859 76.798372zM76.798372 309.958229C145.712111 355.576462 255.533783 383.991859 383.991859 383.991859s238.279748-28.415398 307.193488-74.03363v95.383578c0 46.949405-119.651863 115.197558-307.193488 115.197558s-307.193487-68.248153-307.193487-115.197558z"
          fill="#00C080" p-id="6374"></path>
    <path d="M767.983719 511.989146a255.994573 255.994573 0 1 0 255.994573 255.994573 255.994573 255.994573 0 0 0-255.994573-255.994573z m-121.648621 76.798372a57.137989 57.137989 0 0 1 32.716106 10.239783 182.012141 182.012141 0 0 0 103.524205 34.559267h10.598176a13.106922 13.106922 0 0 1 12.748529 9.318202 12.850928 12.850928 0 0 1-12.338938 16.281255h-5.119891a180.527373 180.527373 0 0 0-107.876113 33.535289 57.291585 57.291585 0 0 1-35.276053 11.263762 57.598779 57.598779 0 0 1 1.126377-115.197558z m-2.201554 358.392402A58.059569 58.059569 0 0 1 588.787518 890.861114a57.291585 57.291585 0 0 1 11.263761-35.276052 180.527373 180.527373 0 0 0 33.535289-108.080909v-5.119892a12.850928 12.850928 0 0 1 16.281255-12.338938 13.106922 13.106922 0 0 1 9.318202 12.74853v10.598175a182.012141 182.012141 0 0 0 34.559268 103.524205 57.496381 57.496381 0 0 1-49.611749 90.263687z m246.72757 0a57.291585 57.291585 0 0 1-35.276052-11.263761 180.527373 180.527373 0 0 0-108.080909-33.535289h-5.119892a12.850928 12.850928 0 0 1-12.338938-16.281255 13.106922 13.106922 0 0 1 12.74853-9.318203h10.598175a182.012141 182.012141 0 0 0 103.524205-34.559267 57.496381 57.496381 0 0 1 90.263687 49.611748A58.059569 58.059569 0 0 1 890.861114 947.17992z m46.079023-268.128716a182.012141 182.012141 0 0 0-34.559267 103.524205v10.598176a13.106922 13.106922 0 0 1-9.318203 12.748529 12.850928 12.850928 0 0 1-16.281255-12.338938v-5.119891a180.527373 180.527373 0 0 0-33.535289-107.876113 57.291585 57.291585 0 0 1-11.263761-35.276053 57.598779 57.598779 0 0 1 115.197558 1.126377 57.291585 57.291585 0 0 1-10.239783 32.613708z"
          fill="#00C080" p-id="6375"></path>
</svg>